<svg width="16" height="16" viewBox="0 0 16 16" fill="none" xmlns="http://www.w3.org/2000/svg">
<path fill-rule="evenodd" clip-rule="evenodd" d="M15.9999 8.04781C16.0009 3.79183 12.6694 0.280163 8.4193 0.0570701C4.16916 -0.166023 0.488381 2.97756 0.0437293 7.21026C-0.400922 11.443 2.54624 15.2828 6.74995 15.9478V10.3598H4.71895V8.04781H6.74995V6.28481C6.66141 5.45163 6.9477 4.62219 7.53131 4.02099C8.11492 3.4198 8.9355 3.10904 9.77095 3.17281C10.371 3.18069 10.9696 3.23284 11.5619 3.32881V5.29981H10.5539C10.2061 5.25433 9.8565 5.36937 9.60365 5.6125C9.3508 5.85563 9.22214 6.20048 9.25395 6.54981V8.04981H11.4729L11.1179 10.3618H9.24995V15.9528C13.1385 15.3377 16.0016 11.9848 15.9999 8.04781Z" fill="#ADADAD"/>
</svg>
