<svg width="16" height="16" viewBox="0 0 16 16" fill="none" xmlns="http://www.w3.org/2000/svg">
<path fill-rule="evenodd" clip-rule="evenodd" d="M0 12C0 14.056 1.944 16 4 16H12C14.056 16 16 14.056 16 12V4C16 1.944 14.056 0 12 0H4C1.944 0 0 1.944 0 4V12ZM2 4C2 3.065 3.065 2 4 2H12C12.935 2 14 3.065 14 4V12C14 12.935 12.935 14 12 14H4C3.047 14 2 12.953 2 12V4ZM13.1051 3.89164C13.1051 4.42183 12.6753 4.85164 12.1451 4.85164C11.6149 4.85164 11.1851 4.42183 11.1851 3.89164C11.1851 3.36145 11.6149 2.93164 12.1451 2.93164C12.6753 2.93164 13.1051 3.36145 13.1051 3.89164ZM8 12C5.794 12 4 10.206 4 8C4 5.794 5.794 4 8 4C10.206 4 12 5.794 12 8C12 10.206 10.206 12 8 12ZM8 6C6.897 6 6 6.897 6 8C6 9.103 6.897 10 8 10C9.103 10 10 9.103 10 8C10 6.897 9.103 6 8 6Z" fill="#ADADAD"/>
</svg>
